<svg width="800" height="800" viewBox="144 144 512 512" xmlns="http://www.w3.org/2000/svg"><defs><clipPath id="b"><path d="m341 250h106v401.9H341z"/></clipPath><clipPath id="a"><path d="m441 148.09h158v84.906H441z"/></clipPath></defs><g clip-path="url(#b)"><path d="m394.62 251.05c-10.945-1.1641-19.246 4.5625-25.367 7.4727-2.8398 1.3555-8.3594 2.793-13.777 5.2578-2.707 1.2266-5.5078 2.7695-8.0273 5.2891-2.5195 2.5195-4.6328 6.4062-4.8281 10.637-3.4609 74.633 6.25 110.68 9.625 164.52 2.7305 43.555 7.2109 86.75 8.6406 129.78.76172 22.895.0 69.887.0 69.887v.003906c-.03125 2.1445.8125 4.2109 2.3398 5.7227 1.5273 1.5078 3.6016 2.3281 5.75 2.2695l70.203-1.9062c2.0898-.058594 4.0781-.94531 5.5117-2.4688 1.4375-1.5234 2.2109-3.5547 2.1445-5.6484.0.0-2.5586-91.125-3.8438-136.7-1.2773-45.223-2.25-90.523-3.8438-135.84-1.0586-30.023.60938-65.008-3.9375-92.488-1.6367-9.9062-9.4805-16.117-17.25-19.738s-16.281-5.3086-23.34-6.0586zm-1.6914 15.652c5.793.61328 13.07 2.1953 18.387 4.6758 5.3203 2.4766 7.8906 5.1953 8.3633 8.0547 4.0781 24.652 2.6289 59.484 3.7227 90.457 1.5898 45.172 2.5664 90.422 3.8438 135.71 1.2109 42.949 3.3945 119.39 3.6602 128.86l-54.273 1.4805c.13672-8.793.70312-41.297.0-62.445-1.457-43.773-5.9688-87.117-8.6719-130.25-3.4648-55.258-12.98-89.762-9.5938-162.8.007813-.17188-.21094.17188.21484-.25.42578-.42578 1.6367-1.2578 3.4141-2.0625 3.5508-1.6133 8.8789-2.9805 13.992-5.4102 7.25-3.4414 13.168-6.4297 16.941-6.0273z" fill-rule="evenodd"/></g><path d="m390.99 267.69c-1.0273.039063-2 .48047-2.707 1.2266l-38.715 40.184h.003906c-1.5117 1.5742-1.4648 4.0703.10547 5.582 1.5703 1.5117 4.0703 1.4648 5.582-.10547l38.715-40.215v-.003906c1.1172-1.1523 1.4219-2.875.76562-4.3438s-2.1406-2.3906-3.75-2.3281z" fill-rule="evenodd"/><path d="m390.46 290.07c-.88281.10156-1.707.5-2.3359 1.1328l-36.777 35.883c-.77344.72266-1.2227 1.7266-1.2461 2.7852-.023438 1.0625.37891 2.0859 1.1211 2.8438.74219.75391 1.7539 1.1836 2.8164 1.1836 1.0586-.003906 2.0742-.42969 2.8125-1.1875l36.777-35.879v-.003907c1.2305-1.1641 1.5742-2.9883.85547-4.5195-.71875-1.5352-2.3398-2.4375-4.0234-2.2422z" fill-rule="evenodd"/><path d="m388.87 307.63c-1.0273.039063-2 .48047-2.707 1.2305l-31.734 32.254v-.003906c-.82422.72266-1.3125 1.7539-1.3438 2.8516-.035156 1.0938.39062 2.1523 1.1719 2.9219.78125.76953 1.8477 1.1758 2.9453 1.125 1.0938-.050781 2.1172-.55469 2.8242-1.3945l31.734-32.254v.003906c1.1523-1.1406 1.4883-2.8672.85156-4.3555-.64062-1.4844-2.125-2.4297-3.7422-2.3789z" fill-rule="evenodd"/><path d="m388.38 326.66c-1.0117.039063-1.9727.46484-2.6758 1.1953l-29.582 29.855c-.75.73828-1.1719 1.7461-1.1719 2.7969-.003906 1.0547.41797 2.0625 1.168 2.8047.74609.73828 1.7617 1.1484 2.8125 1.1367 1.0547-.011719 2.0586-.44531 2.7891-1.2031l29.551-29.855c1.1484-1.1406 1.4883-2.8672.84766-4.3516-.63672-1.4883-2.1211-2.4336-3.7383-2.3828z" fill-rule="evenodd"/><path d="m388.62 345.17c-1.0273.039063-2 .48047-2.707 1.2266l-27.398 27.672c-.75.73828-1.1719 1.7461-1.1719 2.8008.0 1.0508.41797 2.0625 1.168 2.8008.74609.74219 1.7617 1.1523 2.8125 1.1367 1.0547-.011719 2.0586-.44531 2.7891-1.2031l27.398-27.672c1.1758-1.1328 1.5273-2.875.88281-4.3789-.64062-1.5-2.1406-2.4492-3.7734-2.3867z" fill-rule="evenodd"/><path d="m387.57 362.27c-1.0195.058594-1.9805.50781-2.6758 1.2617l-24.508 25.766v-.003907c-.80859.73828-1.2773 1.7773-1.2891 2.8711-.011718 1.0938.42969 2.1406 1.2227 2.8945.79297.75391 1.8633 1.1445 2.957 1.0781 1.0898-.066406 2.1055-.58594 2.8008-1.4297l24.539-25.734c1.1523-1.1602 1.4688-2.9141.79297-4.4023-.67578-1.4922-2.207-2.4062-3.8398-2.3008z" fill-rule="evenodd"/><path d="m389.45 376.72c-1.0156.070312-1.9648.53516-2.6445 1.2891l-25.738 27.672c-1.4883 1.5977-1.3984 4.0938.19922 5.582 1.5938 1.4844 4.0938 1.3945 5.582-.19922l25.707-27.703c1.1172-1.1758 1.3984-2.9141.71094-4.3828-.68359-1.4648-2.1992-2.3633-3.8164-2.2578z" fill-rule="evenodd"/><path d="m391.61 392.12c-1.1719.011718-2.2773.54297-3.0156 1.4492l-25.461 30.07c-1.375 1.6562-1.1602 4.1133.48047 5.5117 1.6406 1.3945 4.0977 1.2109 5.5156-.41016l25.492-30.102c1.0156-1.168 1.25-2.8242.60156-4.2305-.65234-1.4062-2.0664-2.3008-3.6133-2.2852z" fill-rule="evenodd"/><path d="m394.28 413.06c-1.1641.003906-2.2656.52344-3.0117 1.418l-25.953 30.07c-.68359.79297-1.0273 1.8242-.95312 2.8672.074219 1.043.5625 2.0156 1.3516 2.6992.79297.68359 1.8242 1.0273 2.8672.95312 1.043-.074218 2.0156-.5625 2.6992-1.3516l25.953-30.102c1.0312-1.1602 1.2852-2.8164.64453-4.2305-.63672-1.4141-2.043-2.3242-3.5977-2.3203z" fill-rule="evenodd"/><path d="m388.22 443.16c-1.1562.089844-2.2148.6875-2.8906 1.6289l-21.895 29.363c-.625.83984-.89062 1.8945-.73828 2.9297.15234 1.0352.71094 1.9648 1.5508 2.5898s1.8945.89062 2.9297.73438c1.0352-.15234 1.9688-.71094 2.5898-1.5508l21.863-29.363v.003906c.95313-1.2305 1.0938-2.9062.35547-4.2773s-2.2148-2.1758-3.7656-2.0586z" fill-rule="evenodd"/><path d="m391.54 469.14c-1.1641.027344-2.2578.57031-2.9844 1.4805l-23.555 28.656c-.66406.80859-.98047 1.8438-.87891 2.8867.097656 1.0391.60938 2 1.418 2.6641.80859.66406 1.8438.98047 2.8867.87891 1.0391-.097656 2-.60938 2.6641-1.418l23.555-28.656c1.0078-1.1836 1.2266-2.8477.55469-4.25-.67188-1.4062-2.1055-2.2812-3.6602-2.2383z" fill-rule="evenodd"/><path d="m392.04 493.95c-1.0273.089844-1.9766.57422-2.6445 1.3555l-19.219 21.398c-.76953.76172-1.1914 1.8086-1.168 2.8906.027344 1.082.5 2.1094 1.3047 2.832.80469.72266 1.8711 1.0859 2.9531.99609 1.0781-.085937 2.0742-.61719 2.75-1.4609l19.25-21.398c1.1172-1.1953 1.3828-2.9492.66406-4.418-.71484-1.4688-2.2656-2.3398-3.8906-2.1914z" fill-rule="evenodd"/><path d="m394.34 514.15c-1.1602-.003906-2.2617.50391-3.0117 1.3867l-21.648 24.289c-.69922.78125-1.0586 1.8047-1 2.8477.058593 1.043.52734 2.0234 1.3047 2.7188.78125.69922 1.8047 1.0586 2.8477 1 1.043-.058593 2.0234-.52734 2.7188-1.3086l21.648-24.32c1.0625-1.1445 1.3438-2.8047.72656-4.2383-.62109-1.4297-2.0273-2.3594-3.5859-2.3711z" fill-rule="evenodd"/><path d="m395.05 538.47c-1.1523-.011718-2.2539.48438-3.0117 1.3555l-19.711 22.168c-.76172.76953-1.1719 1.8164-1.1367 2.8945s.51172 2.0977 1.3164 2.8164c.80859.71875 1.875 1.0703 2.9492.98047 1.0781-.089844 2.0703-.62109 2.7422-1.4648l19.711-22.137c1.0625-1.1445 1.3477-2.8047.72656-4.2383-.61719-1.4336-2.0234-2.3633-3.5859-2.375z" fill-rule="evenodd"/><path d="m396.49 558.21c-1.168.058594-2.25.63672-2.9531 1.5742l-18.973 24.289c-1.3398 1.7148-1.0391 4.1914.67969 5.5352 1.7148 1.3398 4.1914 1.0391 5.5352-.67578l18.973-24.32v-.003907c.96875-1.207 1.1367-2.8672.43359-4.2461-.70312-1.3828-2.1484-2.2188-3.6953-2.1445z" fill-rule="evenodd"/><path d="m398.28 583c-1.293-.039063-2.5234.55859-3.293 1.5977l-19.004 24.781h.003906c-.65625.82812-.94922 1.8828-.82031 2.9258.12891 1.0469.67188 1.9961 1.5078 2.6367.83594.64453 1.8945.92188 2.9375.77734 1.043-.14062 1.9844-.69922 2.6172-1.543l19.004-24.781h-.003907c.93359-1.1641 1.1289-2.7539.50391-4.1094s-1.9609-2.2383-3.4531-2.2852z" fill-rule="evenodd"/><path d="m589.08 246.97c-10.945-1.1641-19.246 4.5625-25.367 7.4688-2.8398 1.3555-8.3281 2.8242-13.746 5.2891-2.707 1.2266-5.5391 2.7383-8.0547 5.2578-2.5195 2.5195-4.6016 6.4062-4.7969 10.637-3.4609 74.633 6.25 110.71 9.625 164.55 2.7305 43.555 7.2109 86.719 8.6406 129.75.76172 22.895.0 69.887.0 69.887l-.003906.003906c-.035156 2.1445.80859 4.2148 2.3359 5.7227 1.5273 1.5078 3.6055 2.3281 5.75 2.2695l70.203-1.9062c2.0898-.054688 4.0664-.94141 5.5039-2.457 1.4375-1.5156 2.2109-3.5391 2.1523-5.6289.0.0-2.5586-91.152-3.8438-136.73-1.2773-45.219-2.25-90.52-3.8438-135.84-1.0586-30.023.57812-65.004-3.9648-92.484-1.6367-9.9062-9.4492-16.121-17.219-19.738-7.7695-3.6172-16.312-5.3086-23.371-6.0547zm-1.6602 15.648c5.793.61328 13.039 2.1953 18.359 4.6758 5.3203 2.4766 7.8906 5.1953 8.3633 8.0547 4.0781 24.656 2.6602 59.484 3.75 90.457 1.5898 45.176 2.5664 90.426 3.8438 135.71 1.2109 42.949 3.3633 119.39 3.6289 128.86l-54.242 1.5117c.13281-8.7656.70312-41.316.0-62.477-1.457-43.77-5.9688-87.086-8.6719-130.21-3.4648-55.258-12.98-89.793-9.5938-162.84.007813-.17188-.21094.17187.21484-.25.42578-.42578 1.6055-1.2578 3.3828-2.0586 3.5508-1.6172 8.9102-2.9844 14.023-5.4141 7.25-3.4414 13.168-6.4297 16.941-6.0273z" fill-rule="evenodd"/><path d="m585.45 263.6c-1.0195.046876-1.9766.48828-2.6758 1.2266l-38.715 40.188c-.72656.75391-1.1211 1.7656-1.1016 2.8125.019531 1.0469.45312 2.043 1.2109 2.7656.75391.72656 1.7656 1.125 2.8125 1.1016 1.0469-.019531 2.043-.45312 2.7656-1.207l38.684-40.184v-.003907c1.1445-1.1523 1.4648-2.8867.80469-4.3711-.66016-1.4844-2.1641-2.4102-3.7852-2.332z" fill-rule="evenodd"/><path d="m585.36 285.98c-1.0234.007813-2.0078.41406-2.7344 1.1328l-36.777 35.879v.003906c-.76562.72266-1.207 1.7266-1.2266 2.7812-.023438 1.0547.38281 2.0703 1.1211 2.8242.73437.75391 1.7461 1.1836 2.8008 1.1836 1.0547.003907 2.0664-.41406 2.8086-1.1641l36.777-35.852c1.1758-1.1172 1.5508-2.8398.9375-4.3438-.61328-1.5-2.082-2.4766-3.707-2.4492z" fill-rule="evenodd"/><path d="m583.33 303.54c-1.0195.046876-1.9766.48828-2.6758 1.2266l-31.734 32.254v.003907c-.82812.71875-1.3125 1.75-1.3477 2.8477-.03125 1.0938.39453 2.1523 1.1758 2.9219s1.8477 1.1758 2.9414 1.125 2.1211-.55469 2.8281-1.3906l31.734-32.254h-.003906c1.1602-1.1406 1.4961-2.8789.84766-4.3672-.64453-1.4922-2.1406-2.4336-3.7656-2.3672z" fill-rule="evenodd"/><path d="m582.87 322.57c-1.0234.035157-1.9961.46484-2.707 1.1992l-29.551 29.855c-.83594.71484-1.332 1.7461-1.3711 2.8438-.039063 1.0938.37891 2.1602 1.1602 2.9336.77734.77344 1.8438 1.1875 2.9414 1.1406s2.125-.54688 2.8359-1.3867l29.582-29.855v.003907c1.1484-1.1406 1.4883-2.8672.84766-4.3555-.63672-1.4844-2.1211-2.4297-3.7383-2.3789z" fill-rule="evenodd"/><path d="m583.12 341.11c-1.0234.03125-1.9961.46094-2.707 1.1953l-27.398 27.672c-.76172.73828-1.1914 1.75-1.1953 2.8086-.007812 1.0547.41406 2.0703 1.168 2.8164.75.74219 1.7734 1.1523 2.8281 1.1367 1.0586-.015626 2.0664-.46094 2.7969-1.2266l27.398-27.672h-.003906c1.1523-1.1367 1.4922-2.8672.85156-4.3516-.63672-1.4883-2.1211-2.4336-3.7383-2.3828z" fill-rule="evenodd"/><path d="m582.47 358.18c-1.1602-.054687-2.2852.40625-3.0742 1.2578l-24.508 25.766c-.72266.75391-1.1133 1.7656-1.0938 2.8086.023437 1.043.46094 2.0352 1.2148 2.7578.75391.72266 1.7656 1.1133 2.8086 1.0938 1.0469-.023437 2.0391-.46094 2.7578-1.2148l24.508-25.766c1.0977-1.1055 1.4414-2.7539.875-4.2031-.56641-1.4492-1.9336-2.4297-3.4883-2.5z" fill-rule="evenodd"/><path d="m583.95 372.63c-1.0156.070313-1.9609.53516-2.6445 1.2891l-25.738 27.703c-.71094.76562-1.0859 1.7852-1.043 2.8281.039063 1.043.49219 2.0273 1.2578 2.7383s1.7852 1.0859 2.8281 1.043c1.043-.039063 2.0312-.49219 2.7383-1.2578l25.707-27.672c1.1406-1.1719 1.4414-2.9258.75-4.4102-.69141-1.4805-2.2227-2.3828-3.8555-2.2617z" fill-rule="evenodd"/><path d="m586.07 388.03c-1.1562.019531-2.25.55078-2.9805 1.4492l-25.492 30.07c-.67969.80078-1.0078 1.8359-.92188 2.8789.085937 1.043.58203 2.0078 1.3828 2.6875.79687.67578 1.832 1.0078 2.8789.92187 1.043-.085937 2.0078-.58594 2.6875-1.3828l25.492-30.102c1.0195-1.1758 1.2539-2.8398.59766-4.25-.66016-1.4102-2.0859-2.3008-3.6445-2.2695z" fill-rule="evenodd"/><path d="m588.77 408.97c-1.1641.0-2.2695.51953-3.0117 1.4141l-25.953 30.098v.003906c-.78125.76953-1.207 1.832-1.1719 2.9297.039062 1.0977.53125 2.1289 1.3594 2.8477.83203.71484 1.9219 1.0547 3.0117.93359 1.0938-.12109 2.082-.69141 2.7344-1.5781l25.984-30.102v.003907c1.0273-1.1602 1.2812-2.8164.64453-4.2305-.64062-1.4141-2.0469-2.3203-3.5977-2.3203z" fill-rule="evenodd"/><path d="m582.71 439.07c-1.1562.09375-2.2148.6875-2.8906 1.6289l-21.895 29.363c-.67188.83203-.97656 1.9023-.84375 2.9648s.69141 2.0234 1.5508 2.6641 1.9375.90234 2.9961.73047c1.0547-.17578 1.9961-.77344 2.6016-1.6523l21.895-29.363v-.003906c.95312-1.2305 1.0898-2.9023.35156-4.2734-.73828-1.3672-2.2148-2.1758-3.7656-2.0586z" fill-rule="evenodd"/><path d="m586.04 465.05c-1.1641.027343-2.2539.56641-2.9805 1.4766l-23.555 28.652v.003906c-.66406.80469-.98438 1.8438-.88281 2.8867.10156 1.0391.61328 2 1.418 2.6641.80859.66406 1.8477.98047 2.8867.87891 1.043-.10156 2-.60938 2.6641-1.418l23.555-28.656c1.0117-1.1836 1.2266-2.8477.55469-4.25-.67187-1.4023-2.1055-2.2773-3.6602-2.2344z" fill-rule="evenodd"/><path d="m586.53 489.87c-1.0234.085937-1.9727.57422-2.6445 1.3516l-19.219 21.398c-.76562.76562-1.1836 1.8086-1.1562 2.8906.027344 1.082.49609 2.1016 1.3008 2.8281.80469.72266 1.8711 1.082 2.9492.99609 1.0781-.085937 2.0703-.61328 2.75-1.4531l19.25-21.402c1.1172-1.1914 1.3789-2.9492.66406-4.418-.71875-1.4648-2.2656-2.3398-3.8945-2.1914z" fill-rule="evenodd"/><path d="m588.84 510.07c-1.1719-.015625-2.2852.49219-3.0469 1.3828l-21.617 24.289c-1.4492 1.6211-1.3125 4.1133.30859 5.5664 1.6211 1.4492 4.1133 1.3125 5.5664-.30859l21.648-24.32c1.0586-1.1406 1.3438-2.8047.72656-4.2344-.62109-1.4336-2.0273-2.3633-3.5859-2.375z" fill-rule="evenodd"/><path d="m589.54 534.39c-1.1562-.011719-2.2578.48047-3.0156 1.3555l-19.711 22.168c-.75391.76953-1.1641 1.8125-1.1289 2.8906s.51172 2.0938 1.3164 2.8125c.80859.71484 1.8711 1.0703 2.9453.98047s2.0664-.61719 2.7422-1.457l19.711-22.137c1.0586-1.1445 1.3438-2.8047.72266-4.2383-.61719-1.4297-2.0234-2.3594-3.582-2.3711z" fill-rule="evenodd"/><path d="m590.99 554.12c-1.1719.058594-2.2539.63672-2.9531 1.5742l-18.973 24.289c-.71094.8125-1.0547 1.8828-.95703 2.957.10156 1.0742.64062 2.0625 1.4883 2.7266.84766.66797 1.9336.95703 3.0039.80078 1.0664-.15625 2.0234-.74219 2.6445-1.625l19.004-24.32c.96875-1.207 1.1406-2.8711.4375-4.2539-.70312-1.3789-2.1484-2.2188-3.6953-2.1406z" fill-rule="evenodd"/><path d="m592.37 578.94c-1.1602.070312-2.2266.64453-2.9219 1.5742l-18.973 24.781c-1.3242 1.7227-1 4.1953.72266 5.5195 1.7227 1.3242 4.1953 1 5.5195-.72266l19.004-24.781c.96484-1.2227 1.1172-2.8945.39453-4.2695-.72656-1.3789-2.1953-2.1992-3.7461-2.0938z" fill-rule="evenodd"/><path d="m217.8 248.35c-10.945-1.1641-19.246 4.5312-25.367 7.4414-2.8398 1.3555-8.3594 2.8242-13.777 5.2891-2.707 1.2266-5.5078 2.7344-8.0273 5.2539s-4.6016 6.4062-4.7969 10.637c-3.4609 74.637 6.25 110.71 9.625 164.55 2.7305 43.555 7.2109 86.719 8.6406 129.75.76172 22.895.0 69.887.0 69.887v.003907c-.042968 2.1523.79688 4.2266 2.3281 5.7461 1.5273 1.5156 3.6094 2.3398 5.7578 2.2812l70.203-1.9375v-.003906c2.0898-.054687 4.0703-.9375 5.5039-2.457 1.4375-1.5156 2.2109-3.5391 2.1523-5.6289.0.0-2.5859-91.152-3.875-136.73-1.2773-45.223-2.25-90.488-3.8438-135.81-1.0586-30.023.60938-65.004-3.9375-92.484-1.6367-9.9062-9.4805-16.148-17.25-19.77s-16.281-5.2773-23.34-6.0273zm-1.6914 15.648h.03125c5.793.61328 13.039 2.1641 18.359 4.6445 5.3203 2.4766 7.8906 5.1992 8.3633 8.0547 4.0781 24.656 2.6602 59.516 3.75 90.488 1.5898 45.176 2.5664 90.395 3.8438 135.68 1.2109 42.953 3.3633 119.39 3.6289 128.86l-54.242 1.5117c.13281-8.7656.67188-41.32-.03125-62.477-1.457-43.77-5.9375-87.086-8.6406-130.21-3.4648-55.258-13.012-89.793-9.625-162.83.007813-.17188-.21094.17188.21484-.25.42578-.42578 1.6367-1.2578 3.4141-2.0625 3.543-1.6094 8.8867-2.957 13.992-5.3789 7.25-3.4414 13.168-6.4297 16.941-6.0273z" fill-rule="evenodd"/><path d="m214.18 264.95c-1.0273.039063-2 .48047-2.707 1.2266l-38.684 40.215v.003907c-.8125.73047-1.2891 1.7656-1.3086 2.8594-.019531 1.0938.41797 2.1484 1.207 2.9062.78906.75781 1.8594 1.1562 2.9531 1.0938 1.0898-.0625 2.1094-.57422 2.8086-1.418l38.715-40.188c1.1406-1.1523 1.4609-2.8867.80078-4.3711-.66016-1.4844-2.1641-2.4102-3.7852-2.332z" fill-rule="evenodd"/><path d="m214.05 287.34c-1.0156.023437-1.9883.44141-2.7031 1.168l-36.809 35.852v-.003907c-.77344.72656-1.2227 1.7305-1.2461 2.7891-.027344 1.0586.37891 2.082 1.1211 2.8398.73828.75781 1.7539 1.1836 2.8164 1.1836 1.0586.0 2.0742-.42969 2.8125-1.1875l36.777-35.848c1.1797-1.1172 1.5547-2.8398.94141-4.3438s-2.0859-2.4766-3.7109-2.4531z" fill-rule="evenodd"/><path d="m212.05 304.92c-1.0234.03125-1.9961.46094-2.707 1.1992l-31.734 32.258c-1.4922 1.5586-1.457 4.0273.082031 5.543 1.5391 1.5156 4.0117 1.5117 5.5469-.011719l31.734-32.254v.003906c1.1562-1.1445 1.4922-2.8789.84375-4.3672-.64453-1.4922-2.1406-2.4336-3.7656-2.3672z" fill-rule="evenodd"/><path d="m211.59 323.93c-1.0234.03125-1.9961.46094-2.707 1.1953l-29.582 29.859c-.75781.73438-1.1914 1.7461-1.1953 2.8047-.007813 1.0586.41406 2.0742 1.168 2.8203.75391.74219 1.7734 1.1523 2.832 1.1367 1.0586-.019532 2.0625-.46094 2.793-1.2266l29.582-29.855c1.1523-1.1406 1.4883-2.8672.84766-4.3555-.63672-1.4844-2.1211-2.4297-3.7383-2.3789z" fill-rule="evenodd"/><path d="m211.81 342.46c-1.0117.042968-1.9727.46875-2.6758 1.1992l-27.43 27.672c-.75781.73828-1.1914 1.75-1.1953 2.8086-.007812 1.0547.41406 2.0703 1.168 2.8164.75391.74219 1.7734 1.1523 2.832 1.1367 1.0586-.015625 2.0625-.46094 2.793-1.2266l27.398-27.672c1.1484-1.1367 1.4883-2.8633.84766-4.3516-.63672-1.4883-2.1211-2.4297-3.7383-2.3828z" fill-rule="evenodd"/><path d="m210.79 359.56c-1.0195.058594-1.9805.50781-2.6758 1.2617l-24.539 25.734c-1.5 1.5703-1.4453 4.0625.125 5.5664 1.5703 1.5 4.0625 1.4453 5.5664-.125l24.539-25.766c1.125-1.1602 1.4258-2.8867.76172-4.3594-.66797-1.4727-2.1641-2.3906-3.7773-2.3125z" fill-rule="evenodd"/><path d="m213.04 373.98c-1.1602-.03125-2.2734.45312-3.0469 1.3203l-25.738 27.672h.003906c-.71094.76953-1.0859 1.7852-1.0469 2.8281.039062 1.043.49219 2.0312 1.2578 2.7383.76953.71094 1.7852 1.0859 2.8281 1.0469 1.0469-.039063 2.0312-.49219 2.7383-1.2617l25.738-27.672c1.0898-1.1211 1.4062-2.7812.81641-4.2305-.59375-1.4453-1.9883-2.4023-3.5508-2.4414z" fill-rule="evenodd"/><path d="m214.79 389.38c-1.1562.019532-2.25.55078-2.9805 1.4492l-25.492 30.102c-.76172.78516-1.1641 1.8477-1.1133 2.9375.054687 1.0898.55859 2.1094 1.3906 2.8164.83594.70312 1.9219 1.0312 3.0078.90234 1.082-.12891 2.0664-.70312 2.7109-1.582l25.492-30.098v-.003906c1.0156-1.168 1.2539-2.8281.60156-4.2344-.64844-1.4062-2.0664-2.3008-3.6172-2.2852z" fill-rule="evenodd"/><path d="m217.46 410.32c-1.1641.003906-2.2656.51953-3.0117 1.418l-25.953 30.098c-.69922.78906-1.0508 1.8242-.98047 2.875.070313 1.0508.55859 2.0312 1.3594 2.7188.79688.6875 1.8359 1.0234 2.8867.9375 1.0508-.085938 2.0234-.58594 2.6992-1.3945l25.953-30.07c1.0508-1.1602 1.3164-2.832.67578-4.2578-.64062-1.4258-2.0625-2.3359-3.6289-2.3242z" fill-rule="evenodd"/><path d="m211.41 440.42c-1.1562.089844-2.2109.6875-2.8867 1.6289l-21.863 29.363v.003907c-.67969.83203-.98828 1.9023-.85547 2.9648.13281 1.0664.69141 2.0312 1.5547 2.6719.85938.64062 1.9414.90234 3 .72656s1.9961-.77344 2.6016-1.6602l21.863-29.363c.95313-1.2305 1.0938-2.9062.35547-4.2773-.73828-1.3711-2.2148-2.1758-3.7695-2.0586z" fill-rule="evenodd"/><path d="m214.73 466.44c-1.1641.027344-2.2578.57031-2.9844 1.4805l-23.555 28.625c-1.3828 1.6797-1.1406 4.1641.53906 5.5508 1.6797 1.3828 4.1641 1.1406 5.5508-.53906l23.555-28.656c.98828-1.1836 1.1914-2.8359.52344-4.2266s-2.0898-2.2617-3.6289-2.2305z" fill-rule="evenodd"/><path d="m215.62 491.22c-1.1562-.011719-2.2578.48047-3.0117 1.3516l-19.25 21.434c-1.4531 1.6211-1.3164 4.1133.30469 5.5625 1.625 1.4531 4.1172 1.3164 5.5664-.30859l19.219-21.43c1.0547-1.1406 1.3438-2.793.73047-4.2227-.60938-1.4258-2.0039-2.3633-3.5586-2.3867z" fill-rule="evenodd"/><path d="m217.13 511.45c-1.0156.097656-1.9531.58203-2.6133 1.3555l-21.648 24.32v-.003906c-.75781.76953-1.168 1.8164-1.1328 2.8945.039063 1.0742.51172 2.0938 1.3203 2.8086.80469.71875 1.8672 1.0742 2.9453.98438 1.0742-.089844 2.0625-.61719 2.7383-1.457l21.648-24.32c1.0977-1.1992 1.3477-2.9492.625-4.4102-.71875-1.457-2.2656-2.3203-3.8828-2.1719z" fill-rule="evenodd"/><path d="m218.27 535.74c-1.1719-.015625-2.2852.49219-3.043 1.3828l-19.711 22.141c-.76172.76953-1.1719 1.8125-1.1367 2.8945.03125 1.0781.50781 2.0977 1.3164 2.8164.80859.71484 1.875 1.0703 2.9492.98047 1.0781-.09375 2.0703-.62109 2.7422-1.4648l19.711-22.137c1.0586-1.1406 1.3438-2.7969.73438-4.2266-.61328-1.4297-2.0078-2.3633-3.5625-2.3867z" fill-rule="evenodd"/><path d="m219.68 555.51c-1.1523.0625-2.2188.625-2.9219 1.543l-19.004 24.32c-.6875.82031-1.0117 1.8867-.90234 2.9492.11328 1.0625.65625 2.0352 1.5 2.6953.84766.65625 1.9219.9375 2.9805.78516s2.0117-.73047 2.6328-1.6016l18.973-24.289h.003906c.96875-1.207 1.1406-2.8711.4375-4.25-.70703-1.3789-2.1523-2.2188-3.6992-2.1445z" fill-rule="evenodd"/><path d="m221.09 580.29c-1.1562.070313-2.2266.64453-2.9219 1.5742l-19.004 24.812c-.71875.82031-1.0664 1.9023-.96094 2.9883.10938 1.0859.66016 2.0781 1.5273 2.7422.87109.66016 1.9727.93359 3.0508.75 1.0742-.18359 2.0273-.80078 2.625-1.7148l19.004-24.781c.96094-1.2148 1.1172-2.8828.39844-4.2539-.71484-1.375-2.1719-2.1992-3.7188-2.1094z" fill-rule="evenodd"/><path d="m356.7 178.68s-65.984 4.1797-99.691 9.6211h-.0625c-14.547 2.5039-28.59 6.1953-42.406 9.6523v.003906c-3.3906.84375-5.8203 3.8242-5.9648 7.3164l-1.3516 32.344c-.10156 2.4102.90625 4.7344 2.7344 6.3047.0.0 2.4531 2.0938 5.6289 4.3945 3.1719 2.3047 6.7148 4.9414 11.562 6.3672 14.676 4.3164 28.91 1.1641 40.867.31641 31.855-2.3008 92.312-13.375 92.312-13.375 3.8555-.70312 6.6094-4.1367 6.457-8.0547l-1.6914-47.289c-.070312-2.1328-1-4.1484-2.5859-5.582-1.582-1.4336-3.6797-2.1602-5.8086-2.0195zm-7.043 16.48 1.1367 31.945c-7.8945 1.418-56.512 10.195-83.918 12.176-13.367.96094-25.586 3.1562-35.27.31641-.58203-.17188-4.1875-2.1328-6.7969-4.0273-.96094-.69141-.96484-.75391-1.6914-1.3242l.95312-22.289c11.938-3.0039 23.781-6.0898 35.547-8.1172 29.145-4.6953 80.656-8.043 90.035-8.6719z" fill-rule="evenodd"/><g clip-path="url(#a)"><path d="m583.58 148.18s-37.152 3.1328-56.027 5.3164h-.03125c-25.887 3.1172-51.668 6.8516-77.336 10.578-.03125.003906-.0625-.003907-.09375.0h-.18359c-3.5.51172-6.2266 3.2891-6.6758 6.793.0.0-.63281 5.1367-1.0781 11.5-.44531 6.3633-.82422 13.762.15234 20.047.8125 5.2305 2.875 10.688 4.7344 15.375 1.8633 4.6836 3.5977 8.3945 3.5977 8.3945h.007812c1.2227 2.6367 3.7969 4.3867 6.7031 4.5508.0.0 56.508 3.2891 86.531-.51953 18.121-2.3047 49.016-12.328 49.016-12.328v-.003907c3.5742-1.1484 5.8398-4.6641 5.4102-8.3945l-6.2422-54.422c-.48438-4.2266-4.2461-7.3047-8.4883-6.9453zm-6.2734 16.418 4.582 39.91c-6.6445 2.0234-27.555 8.5664-39.977 10.145-24.766 3.1445-73.039.67578-78.934.39453-.53906-1.2422-.62109-1.3242-1.293-3.0117-1.6914-4.2539-3.4492-9.6172-3.8125-11.961-.52734-3.3945-.41406-10.672.0-16.574.17969-2.582.24609-2.8086.42969-4.6406 23.703-3.4336 47.383-6.8672 71.062-9.7188 15.738-1.8242 40.043-3.8711 47.938-4.5508z" fill-rule="evenodd"/></g><path d="m216.08 208.44c-.45312.011719-.90625.066406-1.3516.15625.0.0-16.016 2.457-24.477 4.1484-8.8906 1.7734-25.492 5.875-25.492 5.875-3.4375.84375-5.8906 3.875-5.9961 7.4102.0.0-.40625 5.7969.49219 10.945h-.03125c.89063 5.2852 3.3203 10.762 3.3203 10.762 1.3516 3.5078 5 5.5664 8.7031 4.918.0.0 16.234-2.8359 24.906-4.8594 7.457-1.7344 20.051-5.457 20.941-5.7148h.09375-.003906c3.9727-.79688 6.6914-4.4766 6.2852-8.5039-.40625-4.0312-3.8008-7.0938-7.8516-7.0859-.75.0-1.4961.10547-2.2148.31641.0.0-14.234 4.1562-20.816 5.6875-5.4375 1.2734-12.164 2.4102-17.375 3.3516-.15625-.53516-.42578-1.2734-.46094-1.4805-.039062-.23438-.03125-1.1016-.0625-1.7812 5.0977-1.2266 12.664-3.1055 18.664-4.3047 7.5469-1.5117 23.77-4.0273 23.77-4.0273l.003906-.003906c4.0352-.625 6.9219-4.2305 6.6484-8.3047-.26953-4.0742-3.6133-7.2617-7.6953-7.3438z" fill-rule="evenodd"/><path d="m385.91 187.35s-10.238.15625-17.004 1.3242c-5.8398 1.0391-13.715 3.875-13.715 3.875v-.003906c-2.0781.58984-3.8203 2.0039-4.8242 3.918-1.0039 1.9102-1.1758 4.1523-.48047 6.1953.69531 2.043 2.2031 3.7109 4.1641 4.6133 1.9648.90234 4.2109.95703 6.2148.15625.0.0 8.6953-2.7695 11.438-3.2578 2.2734-.41016 5.5938-.48828 9.1328-.67578.13672.85156.10547 2.2227.18359 4.1484-3.4375.82031-6.0742 1.4648-8.918 2.0625-4.543.94531-14.359 2.6758-14.359 2.6758v-.007812c-2.1211.28516-4.0391 1.4219-5.3047 3.1523-1.2656 1.7266-1.7734 3.8945-1.4062 6.0039.37109 2.1133 1.582 3.9805 3.3594 5.1758 1.7773 1.1992 3.9648 1.6172 6.0586 1.168.0.0 9.7148-1.6953 14.883-2.7695 5.5078-1.1484 15.715-3.6289 15.715-3.6289 3.4805-.83984 5.957-3.9219 6.0273-7.5.0.0.48438-7.7266-.85938-14.082-.96094-4.5391-2.9531-7.9922-2.9531-7.9922v-.003906c-1.3242-2.8438-4.2109-4.6328-7.3516-4.5469z" fill-rule="evenodd"/><path d="m448.52 178.65c-.44922.035156-.89063.10937-1.3242.21875.0.0-16.684 3.7344-25.062 5.625-4.5312 1.0234-13.469 3.0742-13.469 3.0742l.003906.003906c-3.75.86328-6.3242 4.3086-6.0898 8.1445l1.2617 20.293v.003907c.12891 2.1445 1.1328 4.1445 2.7773 5.5352 1.6445 1.3867 3.7852 2.043 5.9219 1.8125.0.0 13.215-1.3867 20.695-2.8281v-.003906h.03125c7.0078-1.3555 18.879-4.7344 18.879-4.7344h.003906c2.0469-.53125 3.793-1.8594 4.8438-3.6914 1.0547-1.832 1.3281-4.0117.75781-6.0469-.57031-2.0352-1.9336-3.7578-3.7852-4.7773-1.8516-1.0195-4.0352-1.25-6.0625-.64062.0.0-12.332 3.3945-17.652 4.4297-3.3477.64453-6.793.99219-11.223 1.543l-.30859-5.1953c2.8359-.64453 4.5859-1.0547 6.8555-1.5742 8.3242-1.8789 25.062-5.5938 25.062-5.5938l.003906-.003906c4.1641-.73438 7.0078-4.625 6.4375-8.8125-.57031-4.1914-4.3516-7.1836-8.5586-6.7734z" fill-rule="evenodd"/><path d="m617 160.66c-3.9023.89844-7.0547 2.0117-8.7344 2.2461-8.4102 1.1641-23.492 4.3672-23.492 4.3672l.003906-.003907c-2.0898.38281-3.9336 1.5938-5.1211 3.3555-1.1836 1.7617-1.6055 3.9258-1.168 6.0039.43359 2.0781 1.6914 3.8906 3.4844 5.0312 1.7891 1.1367 3.9648 1.5039 6.0312 1.0156.0.0 15.414-3.2109 22.418-4.1797 4.3555-.59766 7.7148-1.9336 10.117-2.4922 1.8125-.42578 1.8906-.28516 2.0898-.25.19141.97656.35938 2.4375.73828 4.5195.49219 2.707 1.0859 4.8047 1.2617 6.0586-.8125.70703-1.9844 1.2578-5.6875 1.2578-4.1289-.003906-9.625-.88281-15.773.0-4.7695.66016-14.789 1.8438-14.789 1.8438h-.003906c-4.3242.51172-7.4141 4.4258-6.9062 8.7461.51172 4.3242 4.4297 7.4141 8.75 6.9023.0.0 9.9062-1.1797 15.098-1.9062 2.875-.39453 7.9648.1875 13.621.1875 5.6562.003907 13.195-.89844 18.359-6.9805 3.3672-3.9805 3.3906-8.8008 2.9844-11.961-.41016-3.1602-1.2031-5.6172-1.4453-6.9492-.20313-1.1172-.34766-3.2891-1.0156-5.9961-.66797-2.707-2.1406-6.6484-6.0586-9.1328-5.207-3.3086-10.859-2.5938-14.762-1.6914z" fill-rule="evenodd"/><path d="m236.59 206.01c-.51562.078125-.98047.35547-1.293.77344l-18.695 23.832v-.003907c-.32422.41406-.46875.9375-.40625 1.4531.066406.51953.33203.99219.74219 1.3164.41406.32031.9375.46484 1.457.40234.51562-.0625.98828-.32812 1.3125-.74219l18.695-23.832v.003906c.51953-.62891.59375-1.5156.19141-2.2227-.40234-.71094-1.1992-1.0977-2.0039-.97656z" fill-rule="evenodd"/><path d="m241.18 215.18c-.64844-.007812-1.2578.30469-1.6328.83203l-16.328 21.613c-.34766.41406-.51172.95312-.45312 1.4922.058593.53516.33594 1.0273.76953 1.3516.43359.32812.98047.46094 1.5117.37109.53516-.089844 1.0078-.39453 1.3086-.84766l16.328-21.613c.47266-.58594.56641-1.3867.24609-2.0664-.32031-.68359-1-1.1211-1.75-1.1328z" fill-rule="evenodd"/><path d="m251.54 217.76c-.49609.074219-.94922.33984-1.2578.73828l-16.328 20.598v.003906c-.32812.40625-.47656.92969-.42188 1.4453.058594.51953.32031.99609.72656 1.3203.41016.32812.92969.47656 1.4492.42188.51953-.058594.99219-.32031 1.3203-.73047l16.328-20.602v.003906c.51563-.63281.59375-1.5156.19141-2.2227-.40234-.71094-1.1992-1.0977-2.0078-.97656z" fill-rule="evenodd"/><path d="m260.21 221.48c-.57422.042969-1.1016.33594-1.4453.80469l-12.762 16.695h.003906c-.35547.41016-.51953.95313-.46094 1.4922.058593.53906.33594 1.0312.76953 1.3555.43359.32812.98438.46094 1.5195.37109.53125-.09375 1.0078-.40234 1.3047-.85156l12.73-16.664c.49219-.60938.57812-1.4492.21484-2.1445-.35938-.69141-1.0938-1.1055-1.875-1.0547z" fill-rule="evenodd"/><path d="m272.17 225.23c-.57812.019532-1.1172.28906-1.4766.74219l-10.023 12.27-.003906-.003906c-.35156.40234-.52734.92969-.48438 1.4648.042968.53125.30078 1.0234.71484 1.3633.41406.33984.94922.49609 1.4805.42969.53125-.0625 1.0117-.33984 1.3359-.76563l10.023-12.27v.003907c.49609-.59766.59766-1.4258.26172-2.125-.33984-.69531-1.0547-1.1289-1.8281-1.1055z" fill-rule="evenodd"/><path d="m281 228.98c-.58203.074219-1.1016.40234-1.4141.89844l-5.9336 8.8555-.003907-.003906c-.33984.43359-.48828.98438-.40234 1.5273.085937.54297.39453 1.0273.85156 1.332.45312.30859 1.0195.40625 1.5547.28125.53125-.12891.98828-.47656 1.2578-.95703l5.9648-8.8555v.003906c.44531-.64062.47266-1.4844.066406-2.1484-.40625-.66797-1.168-1.0312-1.9414-.92578z" fill-rule="evenodd"/><path d="m481.33 168.96c-.44922.007812-.88281.16797-1.2305.45703l-23.801 19.246c-.84766.69141-.98047 1.9375-.29297 2.7852.6875.85156 1.9336.98047 2.7852.29297l23.801-19.281c.65625-.52344.90625-1.4102.62109-2.2031-.28516-.78906-1.0391-1.3125-1.8828-1.3008z" fill-rule="evenodd"/><path d="m485.95 174c-.50391.003906-.98828.20312-1.3516.55078l-25.984 23.828c-.38281.35547-.61328.84766-.63281 1.3711-.019531.51953.16797 1.0273.52344 1.4141.35547.38281.84766.60938 1.3711.62891.51953.019531 1.0273-.16797 1.4141-.52344l25.953-23.828c.61328-.53906.82812-1.4023.53906-2.168-.28516-.76172-1.0156-1.2695-1.832-1.2734z" fill-rule="evenodd"/><path d="m487.18 184.86c-.44141.046875-.85156.24219-1.168.55078l-23.801 22.383c-.37891.35938-.60156.85547-.61719 1.375-.011719.52344.17969 1.0273.53906 1.4062.35938.38281.85547.60156 1.375.61719.52344.011719 1.0273-.17969 1.4062-.53906l23.801-22.383c.63281-.57031.82422-1.4883.47266-2.2656-.35156-.77734-1.1602-1.2383-2.0078-1.1445z" fill-rule="evenodd"/><path d="m491.66 194.97c-.375.050782-.72656.21094-1.0156.45703l-21.648 18.293c-.83203.70703-.93359 1.9531-.23047 2.7852.70703.83203 1.9531.9375 2.7852.23047l21.648-18.297c.69141-.55859.92188-1.5117.55859-2.3242-.35938-.8125-1.2188-1.2852-2.0977-1.1484z" fill-rule="evenodd"/><path d="m500.46 198.82c-.44922.03125-.87109.21484-1.1992.51953l-17.773 15.867h-.003906c-.8125.72266-.89062 1.9688-.16797 2.7812.72266.81641 1.9688.89062 2.7852.17188l17.805-15.898c.63672-.55859.84375-1.4609.51562-2.2422s-1.1172-1.2656-1.9609-1.1992z" fill-rule="evenodd"/><path d="m507.1 205.06c-.51562-.003906-1.0117.19531-1.3828.55078l-10.086 9.4102c-.44531.33594-.72656.84766-.77344 1.4023s.14453 1.1016.52734 1.5078c.37891.41016.91406.63672 1.4688.625.55859-.011719 1.0859-.25391 1.4492-.67578l10.117-9.3789c.61719-.54297.82812-1.4141.53516-2.1797-.29688-.76562-1.0352-1.2695-1.8555-1.2617z" fill-rule="evenodd"/><path d="m516.48 206.04c-.50781.0625-.96875.31641-1.293.71094l-6.7344 7.9336c-.70312.83203-.60156 2.0781.23047 2.7812.83203.70312 2.0781.60156 2.7852-.23047l6.7344-7.9336c.54297-.61328.64844-1.5.26562-2.2266-.38281-.72266-1.1758-1.1328-1.9883-1.0312z" fill-rule="evenodd"/></svg>